<svg width="382" height="264" viewBox="0 0 382 264" fill="none" xmlns="http://www.w3.org/2000/svg">
<path d="M93.4891 124.465L99.4858 114.012C101.68 110.138 106.36 108.53 110.529 110.065C119.158 113.281 127.056 117.887 134.004 123.661C137.368 126.439 138.245 131.337 136.051 135.138L130.055 145.591C135.101 151.438 139.05 158.237 141.682 165.619H153.749C158.137 165.619 161.94 168.763 162.671 173.148C164.134 181.92 164.207 191.131 162.671 200.268C161.94 204.654 158.137 207.87 153.749 207.87H141.682C139.05 215.253 135.101 222.051 130.055 227.899L136.051 238.352C138.245 242.153 137.441 247.05 134.004 249.828C127.056 255.603 119.085 260.208 110.529 263.424C106.36 264.959 101.68 263.351 99.4858 259.477L93.4891 249.024C85.8103 250.413 77.9853 250.413 70.3065 249.024L64.3098 259.477C62.1158 263.351 57.4355 264.959 53.267 263.424C44.6375 260.208 36.7393 255.603 29.7919 249.828C26.4279 247.05 25.5503 242.153 27.7443 238.352L33.741 227.899C28.6949 222.051 24.7459 215.253 22.1132 207.87H10.0465C5.65866 207.87 1.85583 204.727 1.12454 200.341C-0.338104 191.569 -0.411224 182.359 1.12454 173.222C1.85583 168.836 5.65866 165.619 10.0465 165.619H22.1132C24.7459 158.237 28.6949 151.438 33.741 145.591L27.7443 135.138C25.5503 131.337 26.3547 126.439 29.7919 123.661C36.7393 117.887 44.7107 113.281 53.267 110.065C57.4355 108.53 62.1158 110.138 64.3098 114.012L70.3065 124.465C77.9121 123.076 85.8103 123.076 93.4891 124.465ZM101.168 167.447C73.0124 145.81 40.9078 177.9 62.5546 206.042C90.7101 227.753 122.815 195.59 101.168 167.447ZM185.488 54.9493L160.843 42.6689C153.457 38.4292 150.239 29.4382 153.164 21.3974C159.673 3.70776 172.471 -12.5199 184.318 -26.7009C189.73 -33.2066 199.09 -34.8148 206.477 -30.5751L227.758 -18.2946C239.459 -28.3091 253.061 -36.2767 267.907 -41.4667V-66.0276C267.907 -74.5069 273.976 -81.8167 282.313 -83.2786C300.304 -86.3487 319.171 -86.4949 337.82 -83.2786C346.23 -81.8167 352.446 -74.58 352.446 -66.0276V-41.4667C367.292 -36.2036 380.894 -28.3091 392.595 -18.2946L413.876 -30.502C421.189 -34.7417 430.623 -33.1335 436.035 -26.6278C447.882 -12.4469 460.388 3.78085 466.896 21.3974C469.821 29.3651 466.604 38.3561 459.217 42.6689L434.865 54.9493C437.717 70.2268 437.717 85.9428 434.865 101.293L459.217 113.647C466.604 117.887 469.895 126.878 466.896 134.845C460.388 152.535 447.882 168.763 436.035 182.944C430.623 189.449 421.262 191.057 413.876 186.818L392.595 174.537C380.894 184.552 367.292 192.519 352.446 197.709V222.343C352.446 230.75 346.449 238.059 338.112 239.521C320.122 242.591 301.181 242.738 282.533 239.594C274.123 238.132 267.907 230.896 267.907 222.343V197.782C253.061 192.519 239.459 184.625 227.758 174.61L206.477 186.891C199.163 191.131 189.73 189.522 184.318 183.017C172.471 168.836 160.038 152.608 153.53 134.918C150.604 126.951 153.457 117.96 160.843 113.647L185.488 101.366C182.636 86.0159 182.636 70.2999 185.488 54.9493ZM271.49 39.5257C228.196 95.811 292.479 160.064 348.79 116.79C392.083 60.5048 327.801 -3.74823 271.49 39.5257ZM93.4891 -94.024L99.4858 -104.477C101.68 -108.351 106.36 -109.959 110.529 -108.424C119.158 -105.208 127.056 -100.603 134.004 -94.8281C137.368 -92.0504 138.245 -87.1528 136.051 -83.3517L130.055 -72.8987C135.101 -67.0509 139.05 -60.2528 141.682 -52.8699H153.749C158.137 -52.8699 161.94 -49.7267 162.671 -45.3409C164.134 -36.5691 164.207 -27.3588 162.671 -18.2216C161.94 -13.8357 158.137 -10.6194 153.749 -10.6194H141.682C139.05 -3.23651 135.101 3.56158 130.055 9.40941L136.051 19.8624C138.245 23.6635 137.441 28.561 134.004 31.3387C127.056 37.1135 119.085 41.7186 110.529 44.9349C106.36 46.47 101.68 44.8618 99.4858 40.9876L93.4891 30.5347C85.8103 31.9235 77.9853 31.9235 70.3065 30.5347L64.3098 40.9876C62.1158 44.8618 57.4355 46.47 53.267 44.9349C44.6375 41.7186 36.7393 37.1135 29.7919 31.3387C26.4279 28.561 25.5503 23.6635 27.7443 19.8624L33.741 9.40941C28.6949 3.56158 24.7459 -3.23651 22.1132 -10.6194H10.0465C5.65866 -10.6194 1.85583 -13.7626 1.12454 -18.1485C-0.338104 -26.9202 -0.411224 -36.1306 1.12454 -45.2678C1.85583 -49.6536 5.65866 -52.8699 10.0465 -52.8699H22.1132C24.7459 -60.2528 28.6949 -67.0509 33.741 -72.8987L27.7443 -83.3517C25.5503 -87.1528 26.3547 -92.0504 29.7919 -94.8281C36.7393 -100.603 44.7107 -105.208 53.267 -108.424C57.4355 -109.959 62.1158 -108.351 64.3098 -104.477L70.3065 -94.024C77.9121 -95.4128 85.8103 -95.4128 93.4891 -94.024ZM101.168 -50.9694C73.0124 -72.6064 40.9078 -40.5164 62.5546 -12.3737C90.7101 9.2632 122.815 -22.8267 101.168 -50.9694Z" fill="white" fill-opacity="0.8"/>
</svg>
