<svg width="330" height="278" viewBox="0 0 330 278" fill="none" xmlns="http://www.w3.org/2000/svg">
<path d="M236.511 139.535L230.514 149.988C228.32 153.862 223.64 155.47 219.471 153.935C210.842 150.719 202.944 146.113 195.996 140.339C192.632 137.561 191.755 132.663 193.949 128.862L199.945 118.409C194.899 112.562 190.95 105.763 188.318 98.3806H176.251C171.863 98.3806 168.06 95.2374 167.329 90.8515C165.866 82.0798 165.793 72.8695 167.329 63.7322C168.06 59.3464 171.863 56.1301 176.251 56.1301H188.318C190.95 48.7472 194.899 41.9491 199.945 36.1013L193.949 25.6483C191.755 21.8472 192.559 16.9496 195.996 14.1719C202.944 8.3972 210.915 3.79203 219.471 0.575731C223.64 -0.959323 228.32 0.648829 230.514 4.52301L236.511 14.976C244.19 13.5871 252.015 13.5871 259.693 14.976L265.69 4.52301C267.884 0.648829 272.565 -0.959323 276.733 0.575731C285.362 3.79203 293.261 8.3972 300.208 14.1719C303.572 16.9496 304.45 21.8472 302.256 25.6483L296.259 36.1013C301.305 41.9491 305.254 48.7472 307.887 56.1301H319.953C324.341 56.1301 328.144 59.2733 328.875 63.6591C330.338 72.4309 330.411 81.6412 328.875 90.7784C328.144 95.1643 324.341 98.3806 319.953 98.3806H307.887C305.254 105.763 301.305 112.562 296.259 118.409L302.256 128.862C304.45 132.663 303.645 137.561 300.208 140.339C293.261 146.113 285.289 150.719 276.733 153.935C272.565 155.47 267.884 153.862 265.69 149.988L259.693 139.535C252.088 140.924 244.19 140.924 236.511 139.535ZM228.832 96.5532C256.988 118.19 289.092 86.1002 267.445 57.9575C239.29 36.2475 207.185 68.4105 228.832 96.5532ZM144.512 209.051L169.157 221.331C176.543 225.571 179.761 234.562 176.836 242.603C170.327 260.292 157.529 276.52 145.682 290.701C140.27 297.207 130.91 298.815 123.523 294.575L102.242 282.295C90.5414 292.309 76.939 300.277 62.0934 305.467V330.028C62.0934 338.507 56.0235 345.817 47.6866 347.279C29.6963 350.349 10.8285 350.495 -7.81989 347.279C-16.2299 345.817 -22.4461 338.58 -22.4461 330.028V305.467C-37.2917 300.204 -50.8941 292.309 -62.595 282.295L-83.8762 294.502C-91.1893 298.742 -100.623 297.134 -106.035 290.628C-117.882 276.447 -130.388 260.219 -136.896 242.603C-139.821 234.635 -136.604 225.644 -129.217 221.331L-104.865 209.051C-107.717 193.773 -107.717 178.057 -104.865 162.707L-129.217 150.353C-136.604 146.113 -139.895 137.122 -136.896 129.155C-130.388 111.465 -117.882 95.2374 -106.035 81.0564C-100.623 74.5507 -91.2624 72.9426 -83.8762 77.1822L-62.595 89.4627C-50.8941 79.4483 -37.2917 71.4806 -22.4461 66.2907V41.6567C-22.4461 33.2505 -16.4493 25.9407 -8.1124 24.4787C9.87784 21.4086 28.8188 21.2624 47.4672 24.4056C55.8773 25.8676 62.0934 33.1043 62.0934 41.6567V66.2176C76.939 71.4806 90.5414 79.3752 102.242 89.3896L123.523 77.1091C130.837 72.8695 140.27 74.4776 145.682 80.9833C157.529 95.1643 169.962 111.392 176.47 129.082C179.396 137.049 176.543 146.04 169.157 150.353L144.512 162.634C147.364 177.984 147.364 193.7 144.512 209.051ZM58.51 224.474C101.804 168.189 37.5214 103.936 -18.7895 147.21C-62.0831 203.495 2.1991 267.748 58.51 224.474ZM236.511 358.024L230.514 368.477C228.32 372.351 223.64 373.959 219.471 372.424C210.842 369.208 202.944 364.603 195.996 358.828C192.632 356.05 191.755 351.153 193.949 347.352L199.945 336.899C194.899 331.051 190.95 324.253 188.318 316.87H176.251C171.863 316.87 168.06 313.727 167.329 309.341C165.866 300.569 165.793 291.359 167.329 282.222C168.06 277.836 171.863 274.619 176.251 274.619H188.318C190.95 267.237 194.899 260.438 199.945 254.591L193.949 244.138C191.755 240.337 192.559 235.439 195.996 232.661C202.944 226.887 210.915 222.281 219.471 219.065C223.64 217.53 228.32 219.138 230.514 223.012L236.511 233.465C244.19 232.076 252.015 232.076 259.693 233.465L265.69 223.012C267.884 219.138 272.565 217.53 276.733 219.065C285.362 222.281 293.261 226.887 300.208 232.661C303.572 235.439 304.45 240.337 302.256 244.138L296.259 254.591C301.305 260.438 305.254 267.237 307.887 274.619H319.953C324.341 274.619 328.144 277.763 328.875 282.148C330.338 290.92 330.411 300.131 328.875 309.268C328.144 313.654 324.341 316.87 319.953 316.87H307.887C305.254 324.253 301.305 331.051 296.259 336.899L302.256 347.352C304.45 351.153 303.645 356.05 300.208 358.828C293.261 364.603 285.289 369.208 276.733 372.424C272.565 373.959 267.884 372.351 265.69 368.477L259.693 358.024C252.088 359.413 244.19 359.413 236.511 358.024ZM228.832 314.969C256.988 336.606 289.092 304.516 267.445 276.374C239.29 254.737 207.185 286.827 228.832 314.969Z" fill="white" fill-opacity="0.8"/>
</svg>
